<svg width="512" height="512" viewBox="0 0 512 512" fill="none" xmlns="http://www.w3.org/2000/svg">
<rect width="512" height="512" fill="white"/>
<path d="M109 179.84C109 169.435 100.717 161 90.5 161C80.2827 161 72 169.435 72 179.84V333.16C72 343.565 80.2827 352 90.5 352C100.717 352 109 343.565 109 333.16V179.84Z" fill="#ED7138"/>
<path d="M230 179.84C230 169.435 221.717 161 211.5 161C201.283 161 193 169.435 193 179.84V333.16C193 343.565 201.283 352 211.5 352C221.717 352 230 343.565 230 333.16V179.84Z" fill="#ED7138"/>
<path d="M145.316 237C135.2 237 127 245.507 127 256C127 266.493 135.2 275 145.316 275H156.684C166.8 275 175 266.493 175 256C175 245.507 166.8 237 156.684 237H145.316Z" fill="#050387"/>
<path d="M351.407 170.64C346.616 161.45 335.435 157.965 326.432 162.855C317.43 167.746 314.016 179.161 318.807 188.351L398.725 341.65C403.516 350.84 414.697 354.325 423.7 349.434C432.702 344.543 436.116 333.129 431.325 323.939L351.407 170.64Z" fill="#2D683D"/>
<path d="M321.302 250.36C326.328 240.712 322.74 228.731 313.288 223.601C303.836 218.47 292.1 222.133 287.074 231.782L239.588 322.951C234.563 332.6 238.151 344.58 247.603 349.711C257.054 354.841 268.791 351.178 273.816 341.529L321.302 250.36Z" fill="#2D683D"/>
<path d="M336 324C347.598 324 357 315.046 357 304C357 292.954 347.598 284 336 284C324.402 284 315 292.954 315 304C315 315.046 324.402 324 336 324Z" fill="#ED7138"/>
</svg>
